<svg width="1512" height="512" viewBox="0 0 1512 512" fill="none" xmlns="http://www.w3.org/2000/svg">
<path d="M70.9736 335.619H445.65V348.889C445.65 413.015 393.693 465 329.6 465H170.445C115.509 465 70.9736 420.442 70.9736 365.476V335.619Z" fill="#9381FF"/>
<path d="M227.214 335.619C227.214 368.794 213.262 405.155 203.602 426.849C190.677 455.877 180.884 465 165.963 465C109.596 465 77.2675 421.044 70.6357 393.675C66.7285 380.961 66.3019 366.986 66.491 353.706C66.4899 355.295 66.4922 352.164 66.491 353.706C65.9466 344.747 65.4363 337.563 67.4121 335.619C69.2932 335.621 94.6904 335.619 94.6904 335.619H227.214Z" fill="#DFC8A3"/>
<path d="M147.235 300.786C147.235 259.562 180.636 226.143 221.839 226.143H371.046C412.249 226.143 445.65 259.562 445.65 300.786V335.619C445.65 386.004 404.826 426.849 354.468 426.849H206.918C173.956 426.849 147.235 400.114 147.235 367.135V300.786Z" fill="#B8B8FF"/>
<path d="M228.47 335.619C228.47 358.232 228.47 373.77 215.207 401.968C205.26 423.532 205.26 423.532 203.602 426.849C147.376 426.849 78.8973 393.846 72.282 375.191C68.3845 366.525 67.959 357 68.1477 347.948C68.1465 349.03 68.1488 346.896 68.1477 347.948C67.6045 341.841 67.0955 336.944 69.0664 335.619C70.9429 335.621 96.2768 335.619 96.2768 335.619H228.47Z" fill="#EEE1CD"/>
<path d="M147.235 300.786C147.235 259.562 180.636 226.143 221.839 226.143H371.046V285.857C371.046 313.34 348.779 335.619 321.311 335.619H147.235V300.786Z" fill="#9381FF"/>
<path d="M404.204 47C409.636 52.4348 409.615 61.1566 410.835 68.5635C411.147 70.4045 411.342 74.9604 411.664 76.8571C414.176 93.3323 416.151 109.99 415.809 126.619C414.633 125.428 408.73 121.211 407.519 119.984C402.955 115.419 399.65 110.75 394.878 106.403C393.318 104.977 391.758 103.551 390.151 102.082C385.988 98.2785 385.988 98.2785 380.994 95.1032C381.829 85.5457 384.564 78.4825 388.972 70.0149C389.542 68.8709 390.111 67.727 390.698 66.5484C394.051 59.9644 398.401 52.8056 404.204 47Z" fill="#DFC7A2"/>
<path d="M182.089 47C176.657 52.4348 176.677 61.1566 175.458 68.5635C175.146 70.4045 174.95 74.9604 174.629 76.8571C172.117 93.3323 170.141 109.99 170.484 126.619C171.659 125.428 177.562 121.211 178.773 119.984C183.337 115.419 186.642 110.75 191.415 106.403C192.975 104.977 194.535 103.551 196.142 102.082C200.305 98.2785 200.305 98.2785 205.299 95.1032C204.464 85.5457 201.728 78.4825 197.321 70.0149C196.751 68.8709 196.182 67.727 195.595 66.5484C192.242 59.9644 187.892 52.8056 182.089 47Z" fill="#DFC7A2"/>
<path d="M416.004 126.619C383.675 133.254 343.86 170.111 325.21 208.519C318.121 224.813 312.941 243.487 313.028 261.268C313.036 264.146 313.036 264.146 313.044 267.083C313.065 270.064 313.065 270.064 313.087 273.106C313.094 275.125 313.102 277.145 313.109 279.225C313.129 284.201 312.993 289.176 313.027 294.151C314.121 294.151 313.552 294.151 314.679 294.151C319.653 290.833 320.792 287.909 322.826 284.717C344.904 251.69 377.527 230.663 415.978 221.167C425.875 219.207 435.84 217.67 445.819 216.19C446.48 183.022 436.274 152.783 416.004 126.619Z" fill="#EEE1CD"/>
<path d="M293.127 66.3987C304.848 66.3987 319.451 67.5184 330.287 70.7982C337.206 72.5552 342.329 73.0132 348.782 69.6967C350.18 68.7089 351.577 67.721 353.017 66.7032C368.896 56.0325 384.723 46.7343 404.204 47.0058C403.12 48.6062 403.12 48.6062 402.015 50.239C387.045 71.1182 387.045 71.1182 382.652 95.109C385.818 98.4886 385.818 98.4886 390.112 101.329C398.663 107.74 409.418 118.01 415.809 126.619C415.809 125.491 415.809 127.714 415.809 126.619C415.809 126.619 408.77 128.511 406.853 129.482C393.409 136.383 380.821 143.161 369.389 153.165C367.626 154.547 367.626 154.547 365.827 155.957C337.123 179.386 320.094 216.604 314.679 252.688C314.45 255.912 314.276 259.139 314.155 262.369C314.092 263.96 314.028 265.552 313.963 267.192C313.892 269.179 313.82 271.167 313.747 273.215C313.507 279.578 313.268 287.6 313.022 294.157H293.127L293.127 66.3987Z" fill="#B8B8FF"/>
<path d="M293.127 66.3987C281.522 66.3987 266.803 67.5184 255.967 70.7982C249.048 72.5552 243.925 73.0132 237.472 69.6967C236.074 68.7089 234.676 67.721 233.236 66.7032C217.358 56.0325 201.531 46.7343 182.05 47.0058C183.134 48.6062 183.134 48.6062 184.239 50.239C199.209 71.1182 199.209 71.1182 203.602 95.109C200.436 98.4886 200.436 98.4886 196.142 101.329C187.591 107.74 176.836 118.01 170.445 126.619C170.445 125.491 170.445 127.714 170.445 126.619C170.445 126.619 177.484 128.511 179.401 129.482C192.845 136.383 205.432 143.161 216.865 153.165C218.628 154.547 218.628 154.547 220.427 155.957C249.131 179.386 266.16 216.604 271.575 252.688C271.804 255.912 271.978 259.139 272.099 262.369C272.162 263.96 272.225 265.552 272.291 267.192C272.362 269.179 272.433 271.167 272.507 273.215C272.746 279.578 272.986 287.6 273.232 294.157H293.127L293.127 66.3987Z" fill="#B8B8FF"/>
<path d="M170.449 126.619C202.778 133.254 242.593 170.111 261.243 208.519C268.332 224.813 273.512 243.487 273.425 261.268C273.417 264.146 273.417 264.146 273.408 267.083C273.388 270.064 273.388 270.064 273.366 273.106C273.359 275.125 273.351 277.145 273.344 279.225C273.324 284.201 273.267 289.176 273.233 294.151H271.575C266.601 289.175 265.661 287.909 263.626 284.717C241.549 251.69 208.926 230.663 170.475 221.167C160.578 219.207 150.613 217.67 140.634 216.19C139.973 183.022 150.179 152.783 170.449 126.619Z" fill="#EEE1CD"/>
<path d="M223.809 185.14C227.125 188.457 227.125 188.457 227.643 194.159C227.125 200.068 227.125 200.068 225.363 203.386C220.115 206.096 216.1 204.8 210.546 203.386C206.973 198.024 206.454 196.334 207.23 190.116C211.111 183.492 216.8 184.502 223.809 185.14Z" fill="#504740"/>
<path d="M374.674 185.14C377.99 188.457 377.99 188.457 378.508 194.159C377.99 200.068 377.99 200.068 376.229 203.386C370.981 206.096 366.965 204.8 361.411 203.386C357.839 198.024 357.319 196.334 358.096 190.116C361.977 183.492 367.666 184.502 374.674 185.14Z" fill="#504740"/>
<path d="M314.679 294.151C314.679 299.894 314.023 300.851 312.551 302.996C312.322 303.329 312.074 303.691 311.806 304.103C311.368 304.585 309.819 305.976 308.259 307.378C306.675 308.801 305.079 310.234 304.622 310.738C300.437 314.725 298.601 315.714 293.127 315.714C287.654 315.714 285.817 314.725 281.632 310.738C281.175 310.234 279.579 308.801 277.995 307.378C276.435 305.976 274.886 304.585 274.448 304.103C274.18 303.691 273.932 303.329 273.703 302.996C272.231 300.851 271.575 299.894 271.575 294.151H314.679Z" fill="#4C4039"/>
<path d="M611.299 181.636C652.266 181.636 685.589 214.964 685.589 255.932C685.589 296.901 652.261 330.229 611.292 330.229C595.49 330.229 580.835 325.253 568.782 316.81V368.369C568.782 377.146 561.667 384.261 552.891 384.261C544.115 384.261 537 377.145 537 368.369V197.531C537 188.755 544.115 181.64 552.891 181.64C560.871 181.64 567.458 187.528 568.592 195.194C580.684 186.668 595.413 181.636 611.299 181.636ZM611.299 298.438C634.74 298.438 653.809 279.368 653.809 255.928C653.809 232.488 634.739 213.418 611.299 213.418C587.86 213.418 568.79 232.488 568.79 255.928C568.79 279.368 587.86 298.438 611.299 298.438ZM832.583 181.636C841.359 181.636 848.474 188.751 848.474 197.527V314.728C848.474 323.505 841.358 330.62 832.583 330.62C824.571 330.62 817.964 324.688 816.868 316.979C804.732 325.559 789.941 330.62 773.982 330.62C732.905 330.62 699.49 297.205 699.49 256.128C699.49 215.051 732.905 181.636 773.982 181.636C789.941 181.636 804.731 186.697 816.868 195.276C817.964 187.567 824.571 181.636 832.583 181.636ZM773.982 298.837C797.531 298.837 816.691 279.678 816.691 256.128C816.691 232.577 797.532 213.418 773.982 213.418C750.432 213.418 731.272 232.577 731.272 256.128C731.272 279.678 750.432 298.837 773.982 298.837ZM937.048 181.636C945.824 181.636 952.939 188.751 952.939 197.527C952.939 206.303 945.824 213.418 937.048 213.418C913.498 213.418 894.338 232.577 894.338 256.128V314.728C894.338 323.505 887.223 330.62 878.447 330.62C869.671 330.62 862.556 323.504 862.556 314.728V197.527C862.556 188.751 869.671 181.636 878.447 181.636C886.459 181.636 893.066 187.569 894.162 195.276C906.297 186.697 921.089 181.636 937.048 181.636ZM1026.88 181.636C1067.96 181.636 1101.37 215.051 1101.37 256.128C1101.37 297.205 1067.96 330.62 1026.88 330.62C985.804 330.62 952.389 297.205 952.389 256.128C952.389 215.051 985.804 181.636 1026.88 181.636ZM1026.88 298.837C1050.43 298.837 1069.59 279.678 1069.59 256.128C1069.59 232.577 1050.43 213.418 1026.88 213.418C1003.33 213.418 984.172 232.577 984.172 256.128C984.172 279.678 1003.33 298.837 1026.88 298.837ZM1191.14 298.837C1199.92 298.837 1207.03 305.953 1207.03 314.729C1207.03 323.505 1199.92 330.62 1191.14 330.62C1149.41 330.62 1115.46 296.667 1115.46 254.934V143.891C1115.46 135.115 1122.57 128 1131.35 128C1140.12 128 1147.24 135.115 1147.24 143.891V254.934C1147.24 279.142 1166.93 298.837 1191.14 298.837ZM1282.42 298.837C1291.2 298.837 1298.31 305.953 1298.31 314.729C1298.31 323.505 1291.2 330.62 1282.42 330.62C1240.69 330.62 1206.74 296.667 1206.74 254.934V143.891C1206.74 135.115 1213.85 128 1222.63 128C1231.4 128 1238.52 135.115 1238.52 143.891V254.934C1238.52 279.142 1258.21 298.837 1282.42 298.837ZM1431.11 181.636C1439.89 181.636 1447 188.751 1447 197.527V314.728C1447 323.505 1439.88 330.62 1431.11 330.62C1423.1 330.62 1416.49 324.688 1415.39 316.979C1403.26 325.559 1388.47 330.62 1372.51 330.62C1331.43 330.62 1298.02 297.205 1298.02 256.128C1298.02 215.051 1331.43 181.636 1372.51 181.636C1388.47 181.636 1403.26 186.697 1415.39 195.276C1416.49 187.567 1423.1 181.636 1431.11 181.636ZM1372.51 298.837C1396.06 298.837 1415.22 279.678 1415.22 256.128C1415.22 232.577 1396.06 213.418 1372.51 213.418C1348.96 213.418 1329.8 232.577 1329.8 256.128C1329.8 279.678 1348.96 298.837 1372.51 298.837Z" fill="#9381FF"/>
</svg>
