<svg width="512" height="512" viewBox="0 0 512 512" fill="none" xmlns="http://www.w3.org/2000/svg">
<g clip-path="url(#clip0_125_2)">
<rect width="512" height="512" rx="100" fill="white"/>
<path d="M56.1771 335.619H430.854V348.889C430.854 413.015 378.896 465 314.803 465H155.649C100.712 465 56.1771 420.442 56.1771 365.476V335.619Z" fill="#9381FF"/>
<path d="M212.418 335.619C212.418 368.794 198.466 405.155 188.806 426.849C175.881 455.877 166.087 465 151.167 465C94.7993 465 62.471 421.044 55.8392 393.675C51.932 380.961 51.5055 366.986 51.6946 353.706C51.6934 355.295 51.6957 352.164 51.6946 353.706C51.1501 344.747 50.6398 337.563 52.6156 335.619C54.4968 335.621 79.894 335.619 79.894 335.619H212.418Z" fill="#DFC8A3"/>
<path d="M132.439 300.786C132.439 259.562 165.84 226.143 207.042 226.143H356.25C397.452 226.143 430.854 259.562 430.854 300.786V335.619C430.854 386.004 390.03 426.849 339.671 426.849H192.122C159.16 426.849 132.439 400.114 132.439 367.135V300.786Z" fill="#B8B8FF"/>
<path d="M213.674 335.619C213.674 358.232 213.674 373.77 200.411 401.968C190.464 423.532 190.464 423.532 188.806 426.849C132.579 426.849 64.1008 393.846 57.4855 375.191C53.588 366.525 51.1732 357.052 51.3618 348C51.3607 349.083 51.3629 346.949 51.3618 348C50.8187 341.893 50.6448 336.944 52.6156 335.619C54.4921 335.621 81.4804 335.619 81.4804 335.619H213.674Z" fill="#EEE1CD"/>
<path d="M132.439 300.786C132.439 259.562 165.84 226.143 207.042 226.143H356.25V285.857C356.25 313.34 333.982 335.619 306.514 335.619H132.439V300.786Z" fill="#9381FF"/>
<path d="M389.407 47C394.839 52.4348 394.819 61.1566 396.039 68.5635C396.351 70.4045 396.546 74.9604 396.868 76.8571C399.379 93.3323 401.355 109.99 401.012 126.619C399.837 125.428 393.934 121.211 392.723 119.984C388.159 115.419 384.854 110.75 380.082 106.403C378.522 104.977 376.962 103.551 375.354 102.082C371.192 98.2785 371.191 98.2785 366.197 95.1032C367.033 85.5457 369.768 78.4825 374.176 70.0149C374.745 68.8709 375.315 67.727 375.901 66.5484C379.255 59.9644 383.605 52.8056 389.407 47Z" fill="#DFC7A2"/>
<path d="M167.293 47C161.861 52.4348 161.881 61.1566 160.661 68.5635C160.349 70.4045 160.154 74.9604 159.832 76.8571C157.321 93.3323 155.345 109.99 155.688 126.619C156.863 125.428 162.766 121.211 163.977 119.984C168.541 115.419 171.846 110.75 176.618 106.403C178.178 104.977 179.738 103.551 181.346 102.082C185.508 98.2785 185.508 98.2785 190.503 95.1032C189.667 85.5457 186.932 78.4825 182.524 70.0149C181.955 68.8709 181.385 67.727 180.798 66.5484C177.445 59.9644 173.095 52.8056 167.293 47Z" fill="#DFC7A2"/>
<path d="M401.207 126.619C368.879 133.254 329.064 170.111 310.413 208.519C303.324 224.813 298.144 243.487 298.232 261.268C298.24 264.146 298.24 264.146 298.248 267.083C298.269 270.064 298.269 270.064 298.29 273.106C298.298 275.125 298.305 277.145 298.313 279.225C298.332 284.201 298.196 289.176 298.23 294.151C299.325 294.151 298.755 294.151 299.883 294.151C304.856 290.833 305.995 287.909 308.03 284.717C330.108 251.69 362.73 230.663 401.181 221.167C411.079 219.207 421.044 217.67 431.023 216.19C431.683 183.022 421.478 152.783 401.207 126.619Z" fill="#EEE1CD"/>
<path d="M278.331 66.3987C290.051 66.3987 304.654 67.5184 315.49 70.7982C322.41 72.5552 327.533 73.0132 333.986 69.6967C335.383 68.7089 336.781 67.721 338.221 66.7032C354.1 56.0325 369.927 46.7343 389.407 47.0058C388.324 48.6062 388.324 48.6062 387.219 50.239C372.249 71.1182 372.248 71.1182 367.855 95.109C371.022 98.4886 371.022 98.4886 375.316 101.329C383.866 107.74 394.621 118.01 401.012 126.619C401.012 125.491 401.012 127.714 401.012 126.619C401.012 126.619 393.974 128.511 392.056 129.482C378.613 136.383 366.025 143.161 354.592 153.165C352.829 154.547 352.829 154.547 351.031 155.957C322.326 179.386 305.298 216.604 299.883 252.688C299.654 255.912 299.48 259.139 299.358 262.369C299.295 263.96 299.232 265.552 299.167 267.192C299.095 269.179 299.024 271.167 298.95 273.215C298.711 279.578 298.472 287.6 298.225 294.157H278.331L278.331 66.3987Z" fill="#B8B8FF"/>
<path d="M278.331 66.3987C266.725 66.3987 252.007 67.5184 241.171 70.7982C234.251 72.5552 229.128 73.0132 222.675 69.6967C221.278 68.7089 219.88 67.721 218.44 66.7032C202.561 56.0325 186.734 46.7343 167.254 47.0058C168.337 48.6062 168.337 48.6062 169.442 50.239C184.413 71.1182 184.413 71.1182 188.806 95.109C185.639 98.4886 185.639 98.4886 181.345 101.329C172.795 107.74 162.039 118.01 155.649 126.619C155.649 125.491 155.649 127.714 155.649 126.619C155.649 126.619 162.687 128.511 164.605 129.482C178.048 136.383 190.636 143.161 202.069 153.165C203.832 154.547 203.832 154.547 205.63 155.957C234.335 179.386 251.363 216.604 256.778 252.688C257.007 255.912 257.181 259.139 257.303 262.369C257.366 263.96 257.429 265.552 257.494 267.192C257.566 269.179 257.637 271.167 257.711 273.215C257.95 279.578 258.189 287.6 258.436 294.157H278.331L278.331 66.3987Z" fill="#B8B8FF"/>
<path d="M155.653 126.619C187.981 133.254 227.796 170.111 246.447 208.519C253.536 224.813 258.716 243.487 258.628 261.268C258.62 264.146 258.62 264.146 258.612 267.083C258.591 270.064 258.591 270.064 258.57 273.106C258.562 275.125 258.555 277.145 258.547 279.225C258.528 284.201 258.47 289.176 258.436 294.151H256.778C251.805 289.175 250.865 287.909 248.83 284.717C226.752 251.69 194.13 230.663 155.679 221.167C145.781 219.207 135.816 217.67 125.837 216.19C125.177 183.022 135.382 152.783 155.653 126.619Z" fill="#EEE1CD"/>
<path d="M209.013 185.14C212.328 188.457 212.328 188.457 212.846 194.159C212.328 200.068 212.328 200.068 210.567 203.386C205.319 206.096 201.303 204.8 195.75 203.386C192.177 198.024 191.657 196.334 192.434 190.116C196.315 183.492 202.004 184.502 209.013 185.14Z" fill="#504740"/>
<path d="M359.878 185.14C363.194 188.457 363.194 188.457 363.712 194.159C363.194 200.068 363.194 200.068 361.432 203.386C356.184 206.096 352.168 204.8 346.615 203.386C343.042 198.024 342.522 196.334 343.299 190.116C347.18 183.492 352.869 184.502 359.878 185.14Z" fill="#504740"/>
<path d="M299.883 294.151C299.883 299.894 299.227 300.851 297.754 302.996C297.526 303.329 297.278 303.691 297.009 304.103C296.572 304.585 295.023 305.976 293.462 307.378C291.879 308.801 290.283 310.234 289.825 310.738C285.64 314.725 283.804 315.714 278.331 315.714C272.857 315.714 271.021 314.725 266.836 310.738C266.378 310.234 264.783 308.801 263.199 307.378C261.638 305.976 260.089 304.585 259.652 304.103C259.383 303.691 259.135 303.329 258.907 302.996C257.434 300.851 256.778 299.894 256.778 294.151H299.883Z" fill="#4C4039"/>
</g>
<defs>
<clipPath id="clip0_125_2">
<rect width="512" height="512" fill="white"/>
</clipPath>
</defs>
</svg>
